<svg width="16" height="16" viewBox="0 0 16 16" fill="none" xmlns="http://www.w3.org/2000/svg">
<path d="M8 0C3.5888 0 0 3.5888 0 8C0 12.4112 3.5888 16 8 16C12.4112 16 16 12.4112 16 8C16 3.5888 12.4111 0 8 0ZM8 14.6286C4.34509 14.6286 1.37144 11.6549 1.37144 8C1.37144 4.34509 4.34509 1.37144 8 1.37144C11.6549 1.37144 14.6286 4.34509 14.6286 8C14.6286 11.6549 11.6548 14.6286 8 14.6286Z" fill="#EDEDED"/>
<path d="M11.0955 4.90486C10.8276 4.637 10.3933 4.637 10.1259 4.90486L8.00001 7.03103L5.87411 4.90486C5.60625 4.637 5.17237 4.637 4.90451 4.90486C4.63665 5.17272 4.63665 5.6066 4.90451 5.87446L7.0304 8.00054L4.90442 10.1267C4.63656 10.3946 4.63656 10.8285 4.90442 11.0963C5.0383 11.2302 5.21378 11.2972 5.38927 11.2972C5.56475 11.2972 5.74041 11.2303 5.87411 11.0963L8.00001 8.97024L10.1259 11.0963C10.2598 11.2302 10.4353 11.2972 10.6108 11.2972C10.7862 11.2972 10.9616 11.2303 11.0956 11.0963C11.3635 10.8285 11.3635 10.3946 11.0956 10.1267L8.96961 8.00064L11.0955 5.87456C11.3634 5.6067 11.3634 5.17272 11.0955 4.90486Z" fill="#EDEDED"/>
</svg>
