<svg width="22" height="22" viewBox="0 0 16 16" fill="none" xmlns="http://www.w3.org/2000/svg">
<path d="M2.48305 8.72728H10.909C11.3106 8.72728 11.6363 8.40166 11.6363 8.00001C11.6363 7.59836 11.3106 7.27274 10.909 7.27274H2.48305L3.42337 6.33247C3.70739 6.04849 3.70739 5.58798 3.42337 5.30396C3.13944 5.01994 2.67893 5.01994 2.39486 5.30396L0.213188 7.48563C0.196315 7.50246 0.180412 7.52006 0.165285 7.53848C0.1616 7.54299 0.158448 7.54784 0.154861 7.55245C0.143758 7.56655 0.132848 7.58071 0.122861 7.59565C0.119952 7.60001 0.117576 7.60462 0.114715 7.60903C0.104727 7.62464 0.0949333 7.6404 0.0861091 7.65683C0.0844121 7.66008 0.0830061 7.66352 0.0813091 7.66677C0.0721455 7.68457 0.0633212 7.7026 0.0556121 7.72122C0.0546424 7.7235 0.0539636 7.72592 0.0530424 7.72825C0.0451394 7.74784 0.0378182 7.76767 0.0316121 7.78808C0.0307879 7.79065 0.0303515 7.79332 0.0296242 7.79594C0.0237576 7.81596 0.0183758 7.83618 0.0142545 7.85688C0.0130424 7.86304 0.0125091 7.86939 0.0113939 7.8756C0.00838788 7.89276 0.00538182 7.90992 0.00368485 7.92743C0.00121212 7.95143 0 7.97567 0 8.00001C0 8.02435 0.00121212 8.04859 0.00368485 8.07264C0.00538182 8.09038 0.00848485 8.10769 0.0114424 8.125C0.0125091 8.13102 0.0130424 8.13717 0.0142545 8.14314C0.0184242 8.16403 0.0237576 8.18444 0.0296727 8.20466C0.0304 8.20704 0.0308364 8.20956 0.0315636 8.21194C0.0378182 8.23245 0.0451394 8.25247 0.0531394 8.27225C0.0540121 8.27438 0.0546424 8.27666 0.0555636 8.2788C0.0633212 8.29756 0.0721939 8.31569 0.0814545 8.33358C0.0830545 8.33674 0.0844121 8.34003 0.0860606 8.34318C0.0949818 8.35972 0.104824 8.37562 0.114958 8.39138C0.117673 8.39565 0.12 8.40015 0.122812 8.40432C0.132848 8.41931 0.143855 8.43356 0.154909 8.44772C0.158448 8.45228 0.1616 8.45708 0.165236 8.46154C0.180412 8.47991 0.196315 8.49756 0.213139 8.51438L2.39481 10.6961C2.53682 10.8381 2.72296 10.9091 2.90909 10.9091C3.09522 10.9091 3.28136 10.8381 3.42332 10.6961C3.70735 10.412 3.70735 9.95157 3.42332 9.66755L2.48305 8.72728Z" fill="#EDEDED"/>
<path d="M10.0509 2.0509C8.0657 2.0509 6.21872 3.03573 5.11011 4.68523C4.88611 5.01856 4.97474 5.47044 5.30808 5.69449C5.64146 5.91849 6.09329 5.82996 6.31739 5.49653C7.15525 4.24974 8.55093 3.5054 10.0509 3.5054C12.5292 3.50545 14.5455 5.52169 14.5455 8.00004C14.5455 10.4784 12.5292 12.4946 10.0509 12.4946C8.55535 12.4946 7.16194 11.7536 6.32345 10.5125C6.09852 10.1797 5.64655 10.0922 5.31365 10.317C4.98085 10.5419 4.89329 10.994 5.11816 11.3268C6.22754 12.9689 8.07152 13.9492 10.0509 13.9492C13.3312 13.9492 16 11.2804 16 8.00004C16 4.71965 13.3312 2.0509 10.0509 2.0509Z" fill="#EDEDED"/>
</svg>
