<svg width="16" height="16" viewBox="0 0 16 16" fill="none" xmlns="http://www.w3.org/2000/svg">
<g clip-path="url(#clip0)">
<path d="M13.7983 4.19245C13.2279 2.34958 11.7462 0.855673 9.93144 0.293641C7.9989 -0.304827 5.98419 0.0200477 4.40394 1.18495C3.64675 1.74311 3.01844 2.47933 2.58697 3.31392C2.14103 4.17652 1.90534 5.14764 1.90534 6.12236C1.90534 7.45198 2.32594 8.71555 3.12169 9.77645L8.00062 15.9998L12.8735 9.78439L12.8796 9.77645C14.0704 8.18867 14.4053 6.15336 13.7983 4.19245ZM12.1323 9.20995L8.00062 14.4805L3.86894 9.20995C3.19784 8.31342 2.84309 7.24583 2.84309 6.12236C2.84309 4.4807 3.63459 2.91711 4.96037 1.9398C6.29831 0.953516 8.00909 0.680048 9.65406 1.18942C11.1776 1.66123 12.4223 2.91817 12.9026 4.4697C13.4191 6.13852 13.1383 7.86602 12.1323 9.20995Z" fill="#1D2730"/>
<path d="M8.00062 2.84048C6.1909 2.84048 4.71856 4.31283 4.71856 6.12254C4.71856 7.93226 6.1909 9.4046 8.00062 9.4046C9.81034 9.4046 11.2827 7.93226 11.2827 6.12254C11.2827 4.31283 9.81034 2.84048 8.00062 2.84048ZM8.00062 8.46689C6.70797 8.46689 5.65628 7.41523 5.65628 6.12254C5.65628 4.82989 6.70793 3.7782 8.00062 3.7782C9.29331 3.7782 10.345 4.82986 10.345 6.12254C10.345 7.4152 9.29328 8.46689 8.00062 8.46689Z" fill="#1D2730"/>
</g>
<defs>
<clipPath id="clip0">
<rect width="16" height="16" fill="white"/>
</clipPath>
</defs>
</svg>
