<svg width="22" height="22" viewBox="0 0 17 16" fill="none" xmlns="http://www.w3.org/2000/svg">
<g clip-path="url(#clip0)">
<path d="M15.8744 11.221C15.8597 11.1273 15.8372 11.0349 15.8071 10.9449C15.5195 10.1446 14.6995 9.66571 13.8611 9.80853C13.5838 9.85219 13.3236 9.66281 13.2798 9.38549L12.858 6.68625C12.5117 4.40247 10.8619 2.53222 8.63914 1.90379C8.43698 0.666537 7.27012 -0.172596 6.03284 0.0295643C4.81194 0.229056 3.97558 1.36939 4.15215 2.59383C2.23623 3.80633 1.22489 6.04207 1.57931 8.28155L2.03137 11.1544C2.07277 11.4312 1.88442 11.69 1.60836 11.7357C0.766563 11.8572 0.132994 12.5647 0.104738 13.4147C0.0949967 14.358 0.851764 15.1305 1.79501 15.1403C1.80092 15.1404 1.80686 15.1404 1.81276 15.1404C1.9018 15.1403 1.99067 15.1335 2.07864 15.1199L3.83106 14.8444C4.44068 15.9326 5.81707 16.3207 6.90534 15.711C7.48016 15.3891 7.88571 14.8321 8.01572 14.1862L14.4521 13.1733C15.384 13.027 16.0208 12.1529 15.8744 11.221ZM6.23083 1.21094C6.29018 1.20169 6.35013 1.19692 6.41018 1.19669C6.79185 1.19873 7.14736 1.39091 7.35813 1.7091H7.33081C7.11847 1.70269 6.9059 1.7088 6.69427 1.72731C6.47139 1.7486 6.24992 1.78282 6.03097 1.82979C5.9837 1.83947 5.93703 1.85314 5.89033 1.86452C5.71099 1.90665 5.53505 1.95619 5.36254 2.01484C5.34546 2.01998 5.32782 2.02281 5.31074 2.02908C5.43087 1.59978 5.79045 1.28002 6.23083 1.21094ZM5.79812 14.8609C5.55683 14.8611 5.32185 14.7837 5.12802 14.64L6.72219 14.39C6.50765 14.6863 6.16388 14.8614 5.79812 14.8609ZM14.6724 11.7825C14.5853 11.9256 14.4395 12.0231 14.2739 12.0489L7.41621 13.1272L4.08386 13.6516L1.9033 13.9932C1.7381 14.0201 1.5695 13.9722 1.44327 13.8622C1.31443 13.7524 1.24121 13.5909 1.24344 13.4216C1.26809 13.1296 1.49451 12.8951 1.78544 12.8602C2.68215 12.7164 3.29444 11.8755 3.15583 10.978L2.70433 8.10507C2.40863 6.20977 3.32893 4.33171 5.0079 3.40404C5.01777 3.40074 5.02745 3.39694 5.03692 3.39267C5.58182 3.09743 6.18123 2.91646 6.79845 2.86091C6.9855 2.84447 7.17342 2.84086 7.36096 2.8501L7.45434 2.85467C7.64836 2.86642 7.84138 2.89074 8.03223 2.92756C8.0385 2.92756 8.04417 2.92756 8.05044 2.92756C9.97691 3.34433 11.4432 4.91177 11.7307 6.86172L12.1554 9.56096C12.2966 10.4594 13.1392 11.0734 14.0376 10.9325C14.3248 10.8764 14.6119 11.0295 14.7254 11.2992C14.7809 11.46 14.7615 11.6373 14.6724 11.7825Z" fill="#EDEDED"/>
</g>
<circle cx="13" cy="5" r="3.5" fill="#FD5959" stroke="#2C3E50"/>
<defs>
<clipPath id="clip0">
<rect width="16" height="16" fill="white"/>
</clipPath>
</defs>
</svg>
