<svg width="22" height="22" viewBox="0 0 16 16" fill="none" xmlns="http://www.w3.org/2000/svg">
<path d="M8 0C5.67378 0 3.78125 1.89253 3.78125 4.21875C3.78125 6.54497 5.67378 8.4375 8 8.4375C10.3262 8.4375 12.2188 6.54497 12.2188 4.21875C12.2188 1.89253 10.3262 0 8 0ZM8 7.5C6.19072 7.5 4.71875 6.02803 4.71875 4.21875C4.71875 2.40947 6.19072 0.9375 8 0.9375C9.80928 0.9375 11.2812 2.40947 11.2812 4.21875C11.2812 6.02803 9.80928 7.5 8 7.5Z" fill="#EDEDED"/>
<path d="M9.30728 9.40625H6.69269C4.53012 9.40625 2.39591 10.4047 0.96875 12.5456V16H15.0312V12.5456C13.6062 10.4078 11.4725 9.40625 9.30728 9.40625ZM14.0938 15.0625H14.0938H1.90625V12.8324C3.00097 11.2713 4.77975 10.3438 6.69272 10.3438H9.30731C11.2203 10.3438 12.999 11.2713 14.0938 12.8324V15.0625Z" fill="#EDEDED"/>
</svg>
