<svg width="22" height="22" viewBox="0 0 16 16" fill="none" xmlns="http://www.w3.org/2000/svg">
<g clip-path="url(#clip0)">
<path d="M3.58126 15.6765C3.40596 15.6765 3.23189 15.6219 3.08332 15.5144C2.80658 15.3139 2.67731 14.9691 2.75263 14.6365L3.78195 10.1023L0.291138 7.04094C0.0345402 6.81694 -0.0634847 6.46219 0.0418646 6.1376C0.147214 5.81362 0.433842 5.58424 0.773206 5.55287L5.39197 5.13355L7.21807 0.860121C7.35272 0.546148 7.65936 0.343384 8.00007 0.343384C8.34078 0.343384 8.64743 0.546148 8.78207 0.859388L10.6082 5.13355L15.2262 5.55287C15.5663 5.58351 15.8529 5.81362 15.9583 6.1376C16.0636 6.46158 15.9662 6.81694 15.7096 7.04094L12.2188 10.1017L13.2481 14.6357C13.3236 14.9691 13.1942 15.3139 12.9176 15.5138C12.6415 15.7138 12.2735 15.7292 11.9828 15.5545L8.00007 13.1744L4.01731 15.5558C3.88266 15.6358 3.73263 15.6765 3.58126 15.6765V15.6765ZM8.00007 12.1491C8.15144 12.1491 8.30135 12.1898 8.43612 12.2697L12.1949 14.5178L11.2234 10.2383C11.1541 9.93372 11.2575 9.61572 11.4928 9.40966L14.7889 6.51896L10.4281 6.12295C10.1141 6.09426 9.84411 5.89687 9.72143 5.60756L8.00007 1.57474L6.27664 5.60817C6.1553 5.89553 5.88527 6.09292 5.57203 6.12161L1.21059 6.51761L4.50658 9.40831C4.74267 9.61498 4.84594 9.93237 4.77599 10.2377L3.80526 14.5171L7.56402 12.2697C7.69867 12.1898 7.8487 12.1491 8.00007 12.1491V12.1491ZM5.35669 5.21619C5.35669 5.21619 5.35669 5.21692 5.35596 5.21753L5.35669 5.21619ZM10.6421 5.21424L10.6428 5.21558C10.6428 5.21485 10.6428 5.21485 10.6421 5.21424Z" fill="#EDEDED"/>
</g>
<defs>
<clipPath id="clip0">
<rect width="16" height="16" fill="white"/>
</clipPath>
</defs>
</svg>
