<svg width="20" height="20" viewBox="0 0 20 20" fill="none" xmlns="http://www.w3.org/2000/svg">
<g clip-path="url(#clip0)">
<path d="M19.9475 7.67117C19.8158 7.2662 19.4566 6.97948 19.0334 6.94118L13.2599 6.41703L10.9783 1.07515C10.8098 0.682682 10.4265 0.429382 9.99985 0.429382C9.57321 0.429382 9.18975 0.682682 9.02236 1.07515L6.74068 6.41703L0.966352 6.94118C0.543066 6.98024 0.184631 7.26696 0.0521827 7.67117C-0.0795027 8.07615 0.0421118 8.52034 0.362246 8.8011L4.72648 12.6279L3.43969 18.2954C3.34554 18.7122 3.50729 19.1431 3.85306 19.393C4.03891 19.5281 4.25727 19.5955 4.47639 19.5955C4.66468 19.5955 4.85313 19.5455 5.02144 19.4447L9.99985 16.468L14.9774 19.4447C15.3425 19.6629 15.8016 19.643 16.1467 19.393C16.4924 19.1431 16.6542 18.7122 16.56 18.2954L15.2732 12.6279L19.6375 8.8011C19.9574 8.52034 20.0792 8.07706 19.9475 7.67117Z" fill="black"/>
</g>
<defs>
<clipPath id="clip0">
<rect width="20" height="20" fill="white"/>
</clipPath>
</defs>
</svg>
