<svg width="16" height="16" viewBox="0 0 16 16" fill="none" xmlns="http://www.w3.org/2000/svg">
<path d="M12.245 1.52719L13.9421 2.94241C14.0589 3.03987 14.2008 3.08744 14.342 3.08744C14.521 3.08744 14.6987 3.01094 14.8223 2.86272C15.0434 2.59762 15.0077 2.2035 14.7426 1.98244L13.0455 0.567187C12.7805 0.346124 12.3863 0.381781 12.1652 0.646906C11.9442 0.911999 11.9799 1.30609 12.245 1.52719Z" fill="#1D2730"/>
<path d="M1.65803 3.08742C1.79915 3.08742 1.94112 3.03985 2.05797 2.94238L3.755 1.5272C4.02009 1.30613 4.05581 0.91201 3.83475 0.646916C3.61371 0.381853 3.21956 0.346135 2.95446 0.567197L1.2574 1.98242C0.992309 2.20348 0.95659 2.5976 1.17765 2.8627C1.30131 3.01092 1.479 3.08742 1.65803 3.08742Z" fill="#1D2730"/>
<path d="M13.2149 3.41009C11.9703 2.16553 10.3592 1.42106 8.625 1.27647V0.625C8.625 0.279813 8.34519 0 8 0C7.65481 0 7.375 0.279813 7.375 0.625V1.27647C5.64081 1.42106 4.02966 2.1655 2.78509 3.41006C1.39213 4.80303 0.625 6.65506 0.625 8.625C0.625 10.5949 1.39213 12.447 2.78509 13.8399C4.17803 15.2329 6.03006 16 8 16C9.58606 16 11.0974 15.5041 12.3708 14.5658C12.6487 14.3611 12.7079 13.9698 12.5032 13.6919C12.2984 13.414 11.9071 13.3547 11.6292 13.5595C10.5723 14.3383 9.31731 14.75 8 14.75C4.62266 14.75 1.875 12.0023 1.875 8.625C1.875 5.24766 4.62266 2.5 8 2.5C11.3773 2.5 14.125 5.24766 14.125 8.625C14.125 9.65656 13.8639 10.6762 13.37 11.5736C13.2035 11.876 13.3138 12.2561 13.6162 12.4225C13.9185 12.5889 14.2986 12.4788 14.4651 12.1763C15.0603 11.0948 15.375 9.86672 15.375 8.625C15.375 6.65506 14.6079 4.80303 13.2149 3.41009Z" fill="#1D2730"/>
<path d="M11.0448 4.86254C10.7766 4.64545 10.383 4.68686 10.1658 4.9552L8.19516 7.39036C8.13153 7.38032 8.06637 7.37501 8 7.37501C7.31075 7.37501 6.75 7.93576 6.75 8.62501C6.75 9.31426 7.31075 9.87501 8 9.87501C8.68925 9.87501 9.25 9.31426 9.25 8.62501C9.25 8.46714 9.22028 8.31614 9.16662 8.17695L11.1375 5.74154C11.3546 5.4732 11.3132 5.07964 11.0448 4.86254Z" fill="#1D2730"/>
</svg>
